# xmcd
#
# Track frame offsets:
#	150
#	17517
#	33310
#	46783
#	60183
#	75300
#	87193
#	102019
#	116499
#	135356
#	151183
#	171748
#	190246
#	206730
#	225843
#
# Disc length: 3270 seconds
#
# Revision: 1
# Processed by: cddbd v1.5.2PL0 Copyright (c) Steve Scherf et al.
# Submitted via: audiograbber 1.83.01
#
DISCID=a50cc40f
DTITLE=Karaoke - CB 158
DYEAR=1900
DGENRE=Karaoke
TTITLE0=Restless Heart - New York Hold Her Tight
TTITLE1=Restless Heart - Ive Never Been So Sure
TTITLE2=Holly Dunn - Weve Got The Love
TTITLE3=Shenandoah - If Bubba Can Dance
TTITLE4=McFly - I Got You
TTITLE5=Shenandoah - Darned If I Dont Darned If I Do
TTITLE6=Kelly Willis - Heaven Bound
TTITLE7=Cyndi Lauper - When You Were Mine
TTITLE8=Alison Krauss - Somewhere In The Vicinity Of The Heart 
TTITLE9=Southern Pacific - Reckless Heart
TTITLE10=The Tractors - Tryin To Get To New Orleans
TTITLE11=Western Flyer - Western Flyer
TTITLE12=Exile - Kiss You All Over
TTITLE13=Exile - Yet
TTITLE14=Mark Oconner - The Devil Comes Back To Georgia
EXTD=
EXTT0=
EXTT1=
EXTT2=
EXTT3=
EXTT4=
EXTT5=
EXTT6=
EXTT7=
EXTT8=
EXTT9=
EXTT10=
EXTT11=
EXTT12=
EXTT13=
EXTT14=
PLAYORDER=
